<svg width="46" height="46" viewBox="0 0 46 46" fill="none" xmlns="http://www.w3.org/2000/svg">
<path d="M22.5824 0C10.1075 0 0 10.1075 0 22.5824C0 35.0574 10.1075 45.1649 22.5824 45.1649C35.0574 45.1649 45.1649 35.0574 45.1649 22.5824C45.1649 10.1075 35.0574 0 22.5824 0ZM33.6733 15.4708L29.9673 32.9357C29.6941 34.1741 28.9565 34.4746 27.9275 33.8919L22.2819 29.7305L19.5593 32.353C19.2588 32.6535 19.0038 32.9084 18.4211 32.9084L18.8217 27.1627L29.2843 17.7108C29.7396 17.3102 29.1842 17.0825 28.5832 17.4832L15.6529 25.6238L10.0801 23.8846C8.86907 23.5021 8.84175 22.6735 10.3351 22.0907L32.1071 13.6952C33.1179 13.3309 34.0011 13.941 33.6733 15.4708Z" fill="#656ED3"/>
</svg>
