<svg width="41" height="41" viewBox="0 0 41 41" fill="none" xmlns="http://www.w3.org/2000/svg">
<path d="M34.6841 5.92789C30.8687 2.10344 25.7877 0 20.3879 0C9.24241 0 0.173011 9.0694 0.173011 20.2149C0.173011 23.7753 1.1018 27.2537 2.86833 30.3224L0 40.7941L10.7175 37.9804C13.6678 39.5921 16.9915 40.4389 20.3788 40.4389H20.3879C31.5243 40.4389 40.7941 31.3695 40.7941 20.224C40.7941 14.8243 38.4994 9.75233 34.6841 5.92789V5.92789ZM20.3879 37.0334C17.3648 37.0334 14.4054 36.2229 11.8285 34.6932L11.2184 34.3289L4.86251 35.9953L6.55619 29.7942L6.15553 29.1568C4.47096 26.4797 3.58769 23.3928 3.58769 20.2149C3.58769 10.9543 11.1273 3.41468 20.397 3.41468C24.8862 3.41468 29.1022 5.163 32.271 8.34093C35.4398 11.5189 37.3885 15.7349 37.3794 20.224C37.3794 29.4937 29.6485 37.0334 20.3879 37.0334V37.0334ZM29.603 24.4491C29.1022 24.1942 26.6163 22.974 26.1519 22.8101C25.6875 22.6371 25.3506 22.5551 25.0137 23.065C24.6768 23.575 23.7116 24.7041 23.4111 25.0501C23.1197 25.387 22.8192 25.4326 22.3184 25.1776C19.3499 23.6933 17.4012 22.5278 15.4435 19.1677C14.9244 18.2754 15.9625 18.3391 16.9277 16.4087C17.0916 16.0718 17.0097 15.7804 16.8822 15.5254C16.7547 15.2705 15.744 12.7846 15.3251 11.7738C14.9153 10.7904 14.4965 10.927 14.1869 10.9088C13.8955 10.8906 13.5586 10.8906 13.2216 10.8906C12.8847 10.8906 12.3384 11.018 11.874 11.5189C11.4096 12.0288 10.1075 13.249 10.1075 15.7349C10.1075 18.2207 11.9195 20.6247 12.1654 20.9616C12.4203 21.2985 15.7257 26.3978 20.7977 28.5923C24.0029 29.9764 25.2595 30.0947 26.8622 29.858C27.8365 29.7123 29.8489 28.6378 30.2677 27.454C30.6866 26.2703 30.6866 25.2595 30.5591 25.0501C30.4408 24.8225 30.1038 24.695 29.603 24.4491Z" fill="#656ED3"/>
</svg>
